<svg width="184" height="180" viewBox="0 0 184 180" fill="none" xmlns="http://www.w3.org/2000/svg">
<path d="M94.5 108.538V127M105.731 47L58 127H131L83.2692 47" stroke="#02C2FF" stroke-width="3" stroke-linecap="round" stroke-linejoin="round"/>
<path d="M182.5 90C182.5 138.846 142.013 178.5 92 178.5C41.987 178.5 1.5 138.846 1.5 90C1.5 41.1537 41.987 1.5 92 1.5C142.013 1.5 182.5 41.1537 182.5 90Z" stroke="#006B8C" stroke-width="3"/>
<g filter="url(#filter0_i_101_2)">
<path d="M48.1378 38V24.9091H50.9055V30.6811H51.0781L55.7891 24.9091H59.1065L54.2486 30.7706L59.1641 38H55.853L52.267 32.6179L50.9055 34.2798V38H48.1378ZM59.7809 24.9091H62.881L65.8661 30.5469H65.994L68.979 24.9091H72.0792L67.3043 33.3722V38H64.5558V33.3722L59.7809 24.9091ZM73.5909 38V24.9091H78.7557C79.7443 24.9091 80.5881 25.0859 81.2869 25.4396C81.9901 25.7891 82.5249 26.2855 82.8913 26.929C83.2621 27.5682 83.4474 28.3203 83.4474 29.1854C83.4474 30.0547 83.2599 30.8026 82.8849 31.429C82.5099 32.0511 81.9666 32.5284 81.255 32.8608C80.5476 33.1932 79.6911 33.3594 78.6854 33.3594H75.2273V31.1349H78.2379C78.7663 31.1349 79.2053 31.0625 79.5547 30.9176C79.9041 30.7727 80.1641 30.5554 80.3345 30.2656C80.5092 29.9759 80.5966 29.6158 80.5966 29.1854C80.5966 28.7507 80.5092 28.3842 80.3345 28.0859C80.1641 27.7876 79.902 27.5618 79.5483 27.4084C79.1989 27.2507 78.7578 27.1719 78.2251 27.1719H76.3587V38H73.5909ZM80.6605 32.0426L83.9141 38H80.8587L77.6754 32.0426H80.6605ZM94.0838 29.1406C93.9943 28.8295 93.8686 28.5547 93.7067 28.3161C93.5447 28.0732 93.3466 27.8686 93.1122 27.7024C92.8821 27.532 92.6179 27.402 92.3196 27.3125C92.0256 27.223 91.6996 27.1783 91.3416 27.1783C90.6726 27.1783 90.0845 27.3445 89.5774 27.6768C89.0746 28.0092 88.6825 28.4929 88.4013 29.1278C88.12 29.7585 87.9794 30.5298 87.9794 31.4418C87.9794 32.3537 88.1179 33.1293 88.3949 33.7685C88.6719 34.4077 89.0639 34.8956 89.571 35.2322C90.0781 35.5646 90.6768 35.7308 91.3672 35.7308C91.9936 35.7308 92.5284 35.62 92.9716 35.3984C93.419 35.1726 93.7599 34.8551 93.9943 34.446C94.233 34.0369 94.3523 33.5533 94.3523 32.995L94.9148 33.0781H91.5398V30.9943H97.0178V32.6435C97.0178 33.794 96.7749 34.7827 96.2891 35.6094C95.8033 36.4318 95.1342 37.0668 94.282 37.5142C93.4297 37.9574 92.4538 38.179 91.3544 38.179C90.1271 38.179 89.049 37.9084 88.12 37.3672C87.1911 36.8217 86.4666 36.0483 85.9467 35.0469C85.4311 34.0412 85.1733 32.848 85.1733 31.4673C85.1733 30.4062 85.3267 29.4602 85.6335 28.6293C85.9446 27.794 86.3793 27.0866 86.9375 26.5071C87.4957 25.9276 88.1456 25.4865 88.8871 25.1839C89.6286 24.8814 90.4318 24.7301 91.2969 24.7301C92.0384 24.7301 92.7287 24.8388 93.3679 25.0561C94.0071 25.2692 94.5739 25.5717 95.0682 25.9638C95.5668 26.3558 95.9737 26.8224 96.2891 27.3636C96.6044 27.9006 96.8068 28.4929 96.8963 29.1406H94.0838ZM111.127 31.4545C111.127 32.8821 110.856 34.0966 110.315 35.098C109.778 36.0994 109.045 36.8643 108.116 37.3928C107.191 37.9169 106.151 38.179 104.997 38.179C103.833 38.179 102.789 37.9148 101.865 37.3864C100.94 36.858 100.209 36.093 99.6721 35.0916C99.1351 34.0902 98.8667 32.8778 98.8667 31.4545C98.8667 30.027 99.1351 28.8125 99.6721 27.8111C100.209 26.8097 100.94 26.0469 101.865 25.5227C102.789 24.9943 103.833 24.7301 104.997 24.7301C106.151 24.7301 107.191 24.9943 108.116 25.5227C109.045 26.0469 109.778 26.8097 110.315 27.8111C110.856 28.8125 111.127 30.027 111.127 31.4545ZM108.32 31.4545C108.32 30.5298 108.182 29.75 107.905 29.1151C107.632 28.4801 107.247 27.9986 106.748 27.6705C106.249 27.3423 105.666 27.1783 104.997 27.1783C104.328 27.1783 103.744 27.3423 103.245 27.6705C102.747 27.9986 102.359 28.4801 102.082 29.1151C101.809 29.75 101.673 30.5298 101.673 31.4545C101.673 32.3793 101.809 33.1591 102.082 33.794C102.359 34.429 102.747 34.9105 103.245 35.2386C103.744 35.5668 104.328 35.7308 104.997 35.7308C105.666 35.7308 106.249 35.5668 106.748 35.2386C107.247 34.9105 107.632 34.429 107.905 33.794C108.182 33.1591 108.32 32.3793 108.32 31.4545ZM114.695 38H111.729L116.248 24.9091H119.815L124.328 38H121.362L118.083 27.9006H117.98L114.695 38ZM114.51 32.8544H121.515V35.0149H114.51V32.8544ZM128.16 38H125.194L129.713 24.9091H133.28L137.793 38H134.827L131.548 27.9006H131.445L128.16 38ZM127.974 32.8544H134.98V35.0149H127.974V32.8544Z" fill="#02C2FF"/>
</g>
<g filter="url(#filter1_d_101_2)">
<path d="M24.2634 63.4969L25.0287 61.3871L31.8282 63.9678L31.029 66.1711C30.7884 66.8343 30.4464 67.3501 30.003 67.7186C29.5618 68.0879 29.0422 68.3021 28.4441 68.3613C27.8483 68.4212 27.1984 68.3176 26.4945 68.0505C25.7863 67.7816 25.2225 67.4234 24.8032 66.9756C24.3862 66.5287 24.1285 66.0105 24.03 65.4212C23.9337 64.8327 24.0115 64.1913 24.2634 63.4969ZM25.4588 62.4922L25.0132 63.7207C24.8082 64.286 24.7467 64.7956 24.8288 65.2496C24.9109 65.7036 25.1191 66.0979 25.4535 66.4324C25.788 66.767 26.2318 67.0393 26.7852 67.2493C27.3341 67.4576 27.8393 67.5468 28.3009 67.5169C28.7647 67.4879 29.1678 67.3345 29.5103 67.0569C29.855 66.78 30.1242 66.3746 30.3179 65.8404L30.7975 64.5185L25.4588 62.4922Z" fill="#295D8D"/>
<path d="M22.0144 70.8398L27.298 72.195L27.0984 73.0089L21.8149 71.6537L22.0144 70.8398ZM28.0771 72.8347C28.116 72.676 28.2034 72.5531 28.3394 72.4657C28.4748 72.3807 28.6181 72.3576 28.7695 72.3964C28.9208 72.4352 29.0366 72.5248 29.1168 72.6651C29.1964 72.8077 29.2167 72.9584 29.1778 73.117C29.1389 73.2757 29.0518 73.3975 28.9164 73.4825C28.7804 73.5699 28.6368 73.5941 28.4854 73.5553C28.3341 73.5165 28.2186 73.4258 28.139 73.2831C28.0588 73.1428 28.0382 72.9934 28.0771 72.8347Z" fill="#295D8D"/>
<path d="M24.3508 81.4736L24.2477 80.6967C24.3785 80.6686 24.509 80.6176 24.6392 80.5439C24.7715 80.4729 24.8874 80.3659 24.9869 80.2229C25.0865 80.0799 25.1537 79.8878 25.1885 79.6464C25.2362 79.316 25.1998 79.0292 25.0794 78.786C24.961 78.5455 24.786 78.4077 24.5542 78.3727C24.3482 78.3416 24.1747 78.3921 24.0337 78.524C23.8927 78.6559 23.7594 78.8752 23.6338 79.1819L23.3216 79.9536C23.1349 80.4186 22.9039 80.7512 22.6287 80.9515C22.3557 81.1521 22.0308 81.224 21.654 81.1671C21.345 81.1205 21.0816 80.9897 20.8638 80.7749C20.6457 80.5624 20.4893 80.2874 20.3944 79.9499C20.2996 79.6123 20.2825 79.2339 20.343 78.8144C20.4224 78.2638 20.6075 77.8261 20.8984 77.5013C21.1892 77.1765 21.571 77.0006 22.0436 76.9738L22.1267 77.7908C21.8256 77.822 21.5875 77.9309 21.4122 78.1175C21.2367 78.3065 21.1244 78.5709 21.0754 78.9106C21.0196 79.2972 21.0572 79.6166 21.1883 79.8686C21.3214 80.1233 21.5038 80.2682 21.7356 80.3031C21.9228 80.3314 22.0891 80.2895 22.2345 80.1773C22.3821 80.0656 22.5072 79.8785 22.6096 79.6163L22.9501 78.7483C23.1385 78.2715 23.3723 77.9357 23.6516 77.7409C23.9328 77.5487 24.2595 77.4807 24.6318 77.5369C24.9361 77.5828 25.1929 77.709 25.4024 77.9154C25.6114 78.1241 25.7612 78.3873 25.8517 78.705C25.9419 79.0251 25.9596 79.3749 25.9048 79.7545C25.8277 80.2888 25.6502 80.6905 25.3722 80.9598C25.0938 81.2314 24.7533 81.4027 24.3508 81.4736Z" fill="#295D8D"/>
<path d="M19.6195 87.7799C19.6353 87.2688 19.7697 86.8326 20.0224 86.4712C20.2752 86.1099 20.6165 85.8367 21.0462 85.6517C21.4759 85.4667 21.9628 85.383 22.5071 85.4006C23.0607 85.4186 23.5462 85.5361 23.9635 85.7534C24.383 85.973 24.7066 86.2701 24.9342 86.6447C25.1641 87.0216 25.2714 87.4562 25.2562 87.9484C25.2443 88.3317 25.1626 88.6749 25.0111 88.9779C24.8596 89.2809 24.6531 89.5265 24.3914 89.7146C24.1298 89.9027 23.8279 90.0149 23.4857 90.0512L23.5116 89.2136C23.7621 89.1577 23.9865 89.0229 24.185 88.809C24.3858 88.5976 24.4919 88.3073 24.5033 87.9382C24.5134 87.6116 24.4371 87.3226 24.2744 87.0709C24.1139 86.8218 23.882 86.6236 23.5787 86.4764C23.2776 86.3316 22.9212 86.2525 22.5095 86.2392C22.0883 86.2255 21.7195 86.2799 21.4031 86.4023C21.0866 86.5271 20.8382 86.7085 20.6579 86.9466C20.4775 87.1871 20.3822 87.473 20.372 87.8043C20.3652 88.022 20.3969 88.2208 20.4672 88.4007C20.5374 88.5807 20.6416 88.7344 20.7797 88.8621C20.9179 88.9897 21.0856 89.0828 21.2827 89.1413L21.2567 89.979C20.9364 89.9212 20.6502 89.7947 20.3981 89.5994C20.1482 89.4065 19.9523 89.155 19.8103 88.8449C19.6707 88.5372 19.607 88.1822 19.6195 87.7799Z" fill="#295D8D"/>
<path d="M19.9231 96.3894C19.8831 95.8986 19.9648 95.458 20.1681 95.0676C20.3716 94.6796 20.6749 94.3639 21.0779 94.1204C21.481 93.8794 21.9633 93.7349 22.5247 93.687C23.0908 93.6387 23.5934 93.6993 24.0323 93.8685C24.4715 94.0402 24.8228 94.3001 25.0864 94.6483C25.3501 94.9988 25.5019 95.4195 25.5419 95.9103C25.5819 96.4011 25.5001 96.8405 25.2966 97.2285C25.0933 97.6189 24.7888 97.9347 24.3833 98.176C23.978 98.4196 23.4923 98.5656 22.9262 98.6139C22.3648 98.6617 21.8656 98.5997 21.4288 98.4279C20.9922 98.2584 20.6421 97.9984 20.3784 97.6478C20.1148 97.2997 19.9631 96.8802 19.9231 96.3894ZM20.6732 96.3254C20.7036 96.6982 20.8241 96.9968 21.0348 97.2212C21.2455 97.4456 21.5112 97.6023 21.832 97.6914C22.1528 97.7805 22.4948 97.8095 22.8581 97.7786C23.2214 97.7476 23.5551 97.6609 23.8595 97.5186C24.1638 97.3762 24.4028 97.1764 24.5766 96.9192C24.7505 96.6621 24.8222 96.3471 24.7918 95.9743C24.7614 95.6014 24.6397 95.3029 24.4267 95.0788C24.2136 94.8546 23.9455 94.698 23.6224 94.6092C23.2992 94.5203 22.956 94.4913 22.5928 94.5223C22.2295 94.5533 21.8969 94.6399 21.5949 94.782C21.293 94.9242 21.0563 95.1238 20.8848 95.3807C20.7134 95.6377 20.6428 95.9526 20.6732 96.3254Z" fill="#295D8D"/>
<path d="M27.0818 105.99L21.3504 105.107L21.1864 104.271L26.1414 101.195L26.3163 102.087L22.3483 104.438L22.3592 104.494L26.9069 105.098L27.0818 105.99Z" fill="#295D8D"/>
<path d="M23.4407 113.286C23.2822 112.785 23.2557 112.316 23.361 111.88C23.4693 111.445 23.6913 111.063 24.0271 110.735C24.3658 110.409 24.8003 110.158 25.3308 109.982C25.8612 109.807 26.3594 109.749 26.8253 109.81C27.2943 109.871 27.6975 110.04 28.0352 110.314C28.3758 110.591 28.6203 110.964 28.7688 111.433C28.8544 111.704 28.8941 111.986 28.8877 112.28C28.8813 112.574 28.8112 112.863 28.6774 113.146C28.5459 113.429 28.3353 113.69 28.0456 113.928C27.7559 114.166 27.3694 114.365 26.8862 114.524L26.549 114.636L25.2814 110.627L25.9691 110.399L26.9798 113.596C27.272 113.499 27.5142 113.354 27.7063 113.161C27.8992 112.97 28.028 112.745 28.0928 112.487C28.1583 112.231 28.1454 111.958 28.054 111.67C27.9534 111.351 27.7877 111.102 27.5568 110.921C27.3289 110.743 27.0706 110.632 26.7819 110.591C26.4931 110.549 26.206 110.575 25.9206 110.67L25.4621 110.822C25.071 110.951 24.7609 111.128 24.5317 111.354C24.3056 111.581 24.1602 111.84 24.0957 112.13C24.0334 112.42 24.0534 112.726 24.1554 113.049C24.2218 113.259 24.311 113.439 24.4229 113.589C24.5379 113.74 24.6745 113.859 24.8329 113.943C24.9935 114.027 25.1745 114.073 25.3757 114.082L25.404 114.925C25.1176 114.93 24.8452 114.869 24.5867 114.743C24.3305 114.616 24.1027 114.429 23.9034 114.184C23.7063 113.937 23.552 113.638 23.4407 113.286Z" fill="#295D8D"/>
<path d="M25.7572 119.097L30.725 116.845L31.0469 117.588L30.2966 117.928L30.3192 117.98C30.6045 117.96 30.8755 118.035 31.1321 118.204C31.3888 118.374 31.582 118.608 31.7119 118.908C31.7364 118.965 31.7659 119.036 31.8005 119.122C31.835 119.207 31.8596 119.273 31.8741 119.318L31.0979 119.67C31.093 119.641 31.0768 119.577 31.0493 119.478C31.0249 119.38 30.9905 119.28 30.9463 119.177C30.8409 118.934 30.6961 118.74 30.5119 118.595C30.3308 118.451 30.1279 118.363 29.9031 118.333C29.6813 118.303 29.4584 118.339 29.2341 118.441L26.0904 119.866L25.7572 119.097Z" fill="#295D8D"/>
<path d="M37.763 129.629L37.179 130.033L35.6199 127.675L36.2039 127.271L37.763 129.629ZM37.733 127.214L38.1953 127.913L33.9199 130.871C33.7252 131.006 33.5981 131.136 33.5387 131.26C33.4824 131.386 33.4678 131.505 33.4948 131.619C33.525 131.733 33.5741 131.842 33.642 131.944C33.6929 132.021 33.7386 132.082 33.779 132.126C33.8214 132.169 33.8553 132.203 33.8807 132.228L33.3556 132.799C33.3068 132.763 33.2455 132.709 33.1718 132.637C33.0962 132.565 33.0153 132.464 32.9291 132.334C32.7985 132.136 32.7124 131.914 32.6708 131.666C32.6305 131.421 32.6548 131.177 32.7439 130.934C32.8343 130.693 33.0099 130.482 33.2708 130.302L37.733 127.214Z" fill="#295D8D"/>
<path d="M39.087 134.959L36.5992 137.099L36.067 136.451L41.5811 131.709L42.1133 132.357L40.0886 134.098L40.1337 134.153C40.4284 134.068 40.7198 134.07 41.0078 134.16C41.2991 134.249 41.5808 134.46 41.8529 134.791C42.0889 135.078 42.2391 135.378 42.3034 135.691C42.3695 136.003 42.3356 136.317 42.2017 136.635C42.0712 136.954 41.8282 137.266 41.4728 137.571L38.845 139.831L38.3129 139.184L40.8976 136.961C41.2261 136.678 41.4087 136.373 41.4453 136.045C41.4853 135.717 41.3798 135.4 41.1288 135.095C40.9544 134.883 40.7541 134.73 40.5278 134.638C40.3031 134.547 40.0665 134.526 39.8181 134.574C39.5712 134.624 39.3275 134.752 39.087 134.959Z" fill="#295D8D"/>
<path d="M43.2996 144.467C42.9216 144.102 42.6743 143.702 42.5576 143.266C42.4442 142.831 42.4555 142.388 42.5917 141.937C42.7311 141.486 42.9904 141.055 43.3694 140.644C43.7484 140.234 44.1557 139.943 44.5912 139.771C45.03 139.6 45.4625 139.553 45.8886 139.633C46.318 139.712 46.7098 139.922 47.064 140.265C47.2683 140.462 47.4379 140.692 47.5729 140.954C47.7078 141.216 47.7848 141.504 47.8037 141.818C47.8242 142.131 47.7649 142.462 47.6259 142.812C47.4868 143.161 47.2447 143.523 46.8994 143.897L46.6585 144.158L43.6346 141.236L44.1261 140.704L46.537 143.033C46.7458 142.807 46.8878 142.563 46.9631 142.3C47.0401 142.038 47.0451 141.778 46.9781 141.519C46.9128 141.262 46.7712 141.028 46.5532 140.818C46.3132 140.586 46.0492 140.446 45.7614 140.398C45.477 140.351 45.1988 140.378 44.9268 140.481C44.6549 140.583 44.417 140.745 44.213 140.966L43.8854 141.321C43.6059 141.623 43.4201 141.929 43.3279 142.238C43.2391 142.547 43.236 142.846 43.3187 143.133C43.403 143.418 43.5669 143.679 43.8104 143.914C43.9687 144.067 44.1326 144.182 44.302 144.261C44.4748 144.339 44.6506 144.377 44.8293 144.375C45.0097 144.372 45.1897 144.325 45.3692 144.235L45.7973 144.965C45.5498 145.107 45.2829 145.185 44.9969 145.198C44.7124 145.21 44.4244 145.155 44.1329 145.035C43.843 144.913 43.5652 144.724 43.2996 144.467Z" fill="#295D8D"/>
<path d="M53.0849 152.098L55.856 147.4L56.545 147.825L56.1121 148.559L56.1725 148.597C56.4171 148.406 56.6881 148.307 56.9855 148.302C57.2841 148.294 57.5844 148.383 57.8866 148.57C58.1929 148.759 58.4062 148.986 58.5267 149.253C58.6504 149.518 58.6957 149.812 58.6626 150.133L58.711 150.163C58.973 149.994 59.2649 149.911 59.5868 149.915C59.91 149.917 60.2377 150.021 60.5702 150.226C60.9852 150.482 61.2471 150.823 61.3558 151.249C61.4658 151.673 61.3578 152.161 61.0319 152.714L59.1773 155.858L58.4641 155.418L60.3187 152.274C60.5232 151.927 60.5756 151.621 60.4761 151.357C60.3765 151.092 60.1998 150.882 59.9459 150.725C59.6196 150.524 59.3078 150.468 59.0106 150.557C58.7146 150.644 58.4771 150.839 58.2978 151.143L56.4938 154.202L55.7685 153.754L57.6664 150.537C57.8239 150.27 57.8652 150.002 57.7902 149.733C57.7164 149.462 57.5445 149.243 57.2745 149.077C57.0891 148.962 56.8864 148.905 56.6663 148.906C56.4482 148.907 56.2375 148.966 56.0341 149.083C55.834 149.199 55.666 149.372 55.5301 149.602L53.7981 152.538L53.0849 152.098Z" fill="#295D8D"/>
<path d="M63.8215 158.073C63.506 157.932 63.2453 157.744 63.0393 157.509C62.8343 157.272 62.705 157.005 62.6515 156.709C62.5989 156.411 62.6424 156.098 62.7821 155.772C62.9049 155.484 63.0607 155.277 63.2494 155.148C63.4391 155.018 63.6497 154.944 63.8815 154.926C64.1133 154.907 64.3533 154.924 64.6016 154.975C64.853 155.026 65.1008 155.087 65.3451 155.16C65.6644 155.257 65.9222 155.337 66.1186 155.401C66.3181 155.465 66.4717 155.491 66.5796 155.479C66.6896 155.469 66.7711 155.402 66.8242 155.278L66.8354 155.251C66.9731 154.929 66.9927 154.64 66.894 154.383C66.7974 154.127 66.573 153.92 66.2208 153.763C65.8556 153.599 65.5348 153.552 65.2585 153.62C64.9821 153.688 64.7627 153.795 64.6003 153.94L63.9859 153.354C64.2459 153.107 64.5202 152.947 64.8089 152.874C65.1007 152.8 65.3896 152.787 65.6756 152.834C65.9647 152.881 66.2346 152.96 66.4853 153.072C66.6452 153.144 66.8205 153.245 67.0112 153.377C67.205 153.508 67.374 153.676 67.5182 153.88C67.6646 154.086 67.7519 154.336 67.7801 154.632C67.8083 154.927 67.7372 155.274 67.5668 155.672L66.1537 158.976L65.3888 158.634L65.6792 157.955L65.6403 157.938C65.5419 158.023 65.4056 158.101 65.2316 158.171C65.0575 158.241 64.8514 158.274 64.6132 158.272C64.375 158.269 64.1111 158.202 63.8215 158.073ZM64.2342 157.433C64.5367 157.568 64.8173 157.622 65.076 157.596C65.3368 157.57 65.5606 157.486 65.7475 157.344C65.9366 157.203 66.0758 157.028 66.1651 156.819L66.4667 156.113C66.4176 156.138 66.3309 156.142 66.2067 156.125C66.0856 156.108 65.9487 156.079 65.7958 156.039C65.646 155.998 65.5004 155.956 65.359 155.913C65.2207 155.87 65.1081 155.835 65.0213 155.809C64.8114 155.746 64.6074 155.705 64.4094 155.687C64.2144 155.667 64.0394 155.691 63.8841 155.759C63.732 155.826 63.6141 155.957 63.5303 156.153C63.4158 156.421 63.4275 156.667 63.5655 156.893C63.7066 157.116 63.9295 157.297 64.2342 157.433Z" fill="#295D8D"/>
<path d="M71.7318 163.153C71.3449 163.034 71.027 162.881 70.7781 162.696C70.5285 162.513 70.3347 162.312 70.1966 162.093C70.0601 161.878 69.9643 161.663 69.9091 161.448L70.6795 161.194C70.7238 161.312 70.7834 161.449 70.8582 161.606C70.9323 161.765 71.0521 161.92 71.2177 162.07C71.3849 162.223 71.6258 162.347 71.9403 162.444C72.3611 162.574 72.7385 162.579 73.0724 162.458C73.4064 162.338 73.6375 162.06 73.7658 161.624L74.0785 160.561L74.0106 160.54C73.9237 160.618 73.8052 160.71 73.6552 160.817C73.5081 160.923 73.3178 161 73.0844 161.047C72.8538 161.092 72.5689 161.063 72.2295 160.958C71.8086 160.828 71.4602 160.612 71.1841 160.309C70.9103 160.007 70.7322 159.635 70.6499 159.194C70.5698 158.753 70.6099 158.26 70.7703 157.715C70.928 157.179 71.1592 156.741 71.4639 156.402C71.7693 156.06 72.1215 155.831 72.5205 155.716C72.9202 155.599 73.3396 155.608 73.7785 155.743C74.1179 155.848 74.3705 155.987 74.5362 156.162C74.7048 156.335 74.8212 156.51 74.8855 156.686C74.9527 156.86 75.0023 157.002 75.0344 157.11L75.1159 157.136L75.3604 156.304L76.1343 156.542L74.5507 161.925C74.4184 162.375 74.209 162.709 73.9225 162.928C73.6376 163.15 73.305 163.274 72.9245 163.301C72.5457 163.33 72.1482 163.281 71.7318 163.153ZM72.5506 160.269C72.8719 160.368 73.1651 160.378 73.4303 160.299C73.6954 160.219 73.9265 160.059 74.1234 159.817C74.3203 159.576 74.4756 159.262 74.5891 158.876C74.7001 158.499 74.7414 158.148 74.7131 157.825C74.6848 157.502 74.5839 157.224 74.4102 156.993C74.2366 156.761 73.9869 156.595 73.6611 156.495C73.3217 156.39 73.0134 156.389 72.7364 156.492C72.4616 156.596 72.2249 156.776 72.0262 157.032C71.8298 157.288 71.6795 157.594 71.5753 157.948C71.4684 158.311 71.4304 158.65 71.4614 158.964C71.4952 159.277 71.6008 159.547 71.778 159.775C71.9582 160.001 72.2157 160.166 72.5506 160.269Z" fill="#295D8D"/>
<path d="M79.0229 162.738L80.0198 157.375L80.8424 157.535L79.8455 162.898L79.0229 162.738ZM80.6042 156.563C80.4439 156.532 80.3158 156.45 80.2199 156.318C80.1264 156.187 80.0939 156.044 80.1225 155.89C80.151 155.737 80.2324 155.616 80.3666 155.529C80.5031 155.442 80.6516 155.414 80.8119 155.446C80.9723 155.477 81.0992 155.558 81.1927 155.69C81.2886 155.822 81.3222 155.965 81.2937 156.118C81.2651 156.272 81.1826 156.392 81.0461 156.479C80.9118 156.566 80.7646 156.594 80.6042 156.563Z" fill="#295D8D"/>
<path d="M87.3071 164.001C86.7978 163.955 86.3698 163.794 86.0229 163.52C85.676 163.246 85.4219 162.889 85.2606 162.449C85.0993 162.009 85.0422 161.518 85.0894 160.975C85.1374 160.423 85.2811 159.945 85.5206 159.542C85.7627 159.136 86.0768 158.83 86.4629 158.625C86.8516 158.418 87.2912 158.337 87.7816 158.382C88.1635 158.417 88.5016 158.519 88.7958 158.688C89.09 158.857 89.3239 159.078 89.4974 159.351C89.6709 159.623 89.7665 159.932 89.7841 160.276L88.9495 160.2C88.9074 159.946 88.785 159.714 88.5823 159.503C88.3822 159.29 88.0983 159.167 87.7305 159.133C87.4051 159.103 87.1125 159.162 86.8525 159.31C86.5951 159.455 86.3847 159.675 86.2213 159.969C86.0604 160.261 85.9622 160.612 85.9265 161.023C85.89 161.443 85.9242 161.814 86.0291 162.137C86.1364 162.461 86.304 162.72 86.5319 162.914C86.7621 163.109 87.0423 163.221 87.3723 163.251C87.5892 163.271 87.7894 163.251 87.9728 163.192C88.1562 163.132 88.3153 163.037 88.4502 162.907C88.5851 162.777 88.6871 162.615 88.7562 162.421L89.5909 162.497C89.5158 162.814 89.374 163.092 89.1654 163.332C88.9593 163.57 88.6976 163.751 88.3804 163.874C88.0657 163.995 87.7079 164.038 87.3071 164.001Z" fill="#295D8D"/>
<path d="M101.79 163.683C101.301 163.738 100.859 163.67 100.465 163.479C100.073 163.287 99.7506 162.993 99.4985 162.597C99.2488 162.202 99.0938 161.723 99.0335 161.163C98.9727 160.598 99.022 160.094 99.1813 159.649C99.343 159.205 99.5948 158.845 99.9368 158.571C100.281 158.296 100.698 158.131 101.187 158.076C101.677 158.021 102.117 158.089 102.509 158.281C102.904 158.473 103.226 158.768 103.476 159.166C103.728 159.564 103.885 160.045 103.946 160.61C104.006 161.17 103.955 161.672 103.793 162.114C103.634 162.556 103.382 162.914 103.037 163.189C102.695 163.463 102.28 163.628 101.79 163.683ZM101.71 162.935C102.082 162.893 102.377 162.763 102.597 162.545C102.816 162.328 102.967 162.057 103.049 161.733C103.13 161.41 103.152 161.067 103.113 160.704C103.074 160.342 102.98 160.01 102.831 159.71C102.682 159.41 102.477 159.177 102.216 159.011C101.956 158.845 101.639 158.783 101.268 158.825C100.896 158.867 100.601 158.998 100.381 159.218C100.162 159.438 100.012 159.711 99.9302 160.037C99.8486 160.363 99.8273 160.707 99.8663 161.069C99.9053 161.432 99.9992 161.762 100.148 162.06C100.297 162.358 100.501 162.588 100.762 162.752C101.022 162.916 101.338 162.976 101.71 162.935Z" fill="#295D8D"/>
<path d="M109.068 156.697L109.215 157.392L106.345 158.03L106.198 157.336L109.068 156.697ZM108.191 162.48L106.901 156.408C106.836 156.102 106.853 155.832 106.953 155.596C107.053 155.36 107.207 155.166 107.414 155.013C107.621 154.861 107.852 154.756 108.106 154.7C108.307 154.655 108.475 154.635 108.609 154.639C108.743 154.643 108.844 154.652 108.912 154.666L108.827 155.427C108.782 155.422 108.721 155.418 108.643 155.413C108.566 155.408 108.47 155.419 108.352 155.445C108.081 155.505 107.9 155.617 107.809 155.78C107.721 155.943 107.704 156.157 107.76 156.421L109.009 162.298L108.191 162.48Z" fill="#295D8D"/>
<path d="M120.397 158.702L117.572 152.001L118.378 151.645L119.78 154.97L119.858 154.936L121.445 150.292L122.498 149.828L120.978 154.084L125.323 156.53L124.348 156.96L120.722 154.865L120.287 156.174L121.203 158.347L120.397 158.702Z" fill="#295D8D"/>
<path d="M130.015 156.238C129.893 156.311 129.778 156.365 129.671 156.401C129.564 156.44 129.488 156.461 129.441 156.464L129.258 155.713C129.459 155.654 129.623 155.579 129.75 155.486C129.877 155.394 129.962 155.262 130.004 155.092C130.048 154.922 130.046 154.69 129.997 154.397L129.92 153.947L125.475 150.214L126.256 149.749L129.7 152.756L129.749 152.727L128.892 148.179L129.673 147.714L130.775 154.33C130.825 154.628 130.83 154.897 130.789 155.136C130.749 155.378 130.664 155.589 130.534 155.772C130.405 155.953 130.232 156.108 130.015 156.238Z" fill="#295D8D"/>
<path d="M135.597 150.172L132.424 145.735L133.073 145.25L133.552 145.92L133.597 145.886C133.52 145.607 133.537 145.321 133.647 145.028C133.758 144.736 133.944 144.491 134.206 144.296C134.255 144.259 134.317 144.214 134.393 144.16C134.468 144.107 134.526 144.068 134.567 144.043L135.062 144.737C135.036 144.748 134.977 144.778 134.888 144.828C134.798 144.874 134.709 144.93 134.62 144.997C134.408 145.156 134.251 145.343 134.148 145.558C134.047 145.77 134.004 145.991 134.021 146.221C134.037 146.448 134.117 146.662 134.261 146.862L136.268 149.67L135.597 150.172Z" fill="#295D8D"/>
<path d="M144.102 145.912C143.807 146.188 143.518 146.388 143.236 146.509C142.955 146.632 142.688 146.697 142.435 146.705C142.184 146.712 141.954 146.684 141.745 146.621L141.92 145.815C142.041 145.838 142.187 145.857 142.357 145.873C142.528 145.891 142.719 145.866 142.929 145.799C143.143 145.732 143.369 145.586 143.61 145.361C143.931 145.06 144.125 144.733 144.192 144.378C144.259 144.024 144.141 143.677 143.838 143.338L143.099 142.512L143.048 142.561C143.069 142.677 143.087 142.829 143.102 143.016C143.117 143.2 143.086 143.406 143.008 143.634C142.93 143.86 142.761 144.094 142.502 144.336C142.18 144.637 141.822 144.83 141.428 144.914C141.035 144.997 140.631 144.959 140.218 144.802C139.805 144.643 139.41 144.352 139.031 143.929C138.658 143.512 138.406 143.083 138.273 142.64C138.139 142.195 138.123 141.768 138.228 141.359C138.33 140.949 138.549 140.586 138.885 140.272C139.144 140.03 139.389 139.881 139.62 139.827C139.851 139.77 140.057 139.758 140.238 139.793C140.418 139.825 140.563 139.855 140.671 139.884L140.733 139.826L140.155 139.18L140.746 138.626L144.488 142.808C144.801 143.157 144.977 143.514 145.017 143.878C145.061 144.243 144.998 144.598 144.828 144.945C144.662 145.292 144.42 145.614 144.102 145.912ZM142.083 143.698C142.328 143.468 142.484 143.216 142.551 142.943C142.618 142.67 142.599 142.384 142.495 142.087C142.39 141.789 142.204 141.49 141.935 141.19C141.673 140.897 141.399 140.679 141.112 140.536C140.825 140.393 140.54 140.337 140.257 140.369C139.974 140.4 139.708 140.533 139.459 140.766C139.2 141.008 139.044 141.278 138.991 141.573C138.94 141.868 138.972 142.168 139.088 142.475C139.205 142.78 139.387 143.07 139.633 143.345C139.886 143.628 140.153 143.837 140.433 143.973C140.714 144.106 140.995 144.154 141.277 144.117C141.558 144.077 141.827 143.937 142.083 143.698Z" fill="#295D8D"/>
<path d="M149.453 140.187C149.362 140.296 149.271 140.385 149.182 140.455C149.094 140.526 149.029 140.571 148.986 140.589L148.568 139.939C148.738 139.817 148.868 139.692 148.957 139.563C149.047 139.434 149.084 139.282 149.067 139.106C149.054 138.931 148.976 138.713 148.833 138.452L148.613 138.051L143.197 135.977L143.782 135.281L148.015 136.997L148.052 136.953L145.754 132.931L146.339 132.235L149.546 138.133C149.691 138.399 149.783 138.651 149.823 138.891C149.864 139.132 149.853 139.361 149.79 139.576C149.728 139.789 149.616 139.993 149.453 140.187Z" fill="#295D8D"/>
<path d="M152.728 132.671L152.202 132.307L150.639 127.461L150.593 127.429L148.939 129.929L148.297 129.484L150.546 126.084L151.095 126.464L152.681 131.222L152.728 131.255L154.443 128.66L155.086 129.104L152.728 132.671Z" fill="#295D8D"/>
<path d="M155.288 119.823L155.135 120.594C155.002 120.578 154.863 120.583 154.717 120.609C154.569 120.633 154.426 120.696 154.286 120.798C154.146 120.901 154.021 121.061 153.91 121.278C153.759 121.576 153.701 121.86 153.736 122.13C153.77 122.398 153.89 122.587 154.097 122.697C154.281 122.795 154.46 122.804 154.636 122.726C154.811 122.648 155.007 122.484 155.224 122.235L155.767 121.607C156.092 121.228 156.417 120.989 156.741 120.89C157.062 120.791 157.391 120.831 157.728 121.01C158.004 121.156 158.209 121.368 158.345 121.644C158.482 121.918 158.541 122.231 158.521 122.582C158.502 122.934 158.396 123.299 158.204 123.676C157.951 124.172 157.636 124.526 157.257 124.737C156.879 124.949 156.463 124.989 156.009 124.857L156.194 124.055C156.488 124.125 156.747 124.101 156.972 123.982C157.199 123.861 157.389 123.648 157.545 123.342C157.722 122.994 157.79 122.678 157.748 122.396C157.704 122.11 157.579 121.912 157.373 121.802C157.205 121.713 157.035 121.697 156.862 121.756C156.687 121.813 156.509 121.948 156.328 122.163L155.728 122.873C155.397 123.263 155.069 123.504 154.743 123.596C154.416 123.685 154.087 123.641 153.754 123.464C153.483 123.319 153.282 123.114 153.151 122.849C153.021 122.581 152.965 122.282 152.983 121.951C153.001 121.617 153.097 121.28 153.271 120.938C153.516 120.457 153.812 120.135 154.161 119.971C154.51 119.806 154.886 119.757 155.288 119.823Z" fill="#295D8D"/>
<path d="M156.651 113.274L157.31 113.54L156.294 116.177L155.635 115.912L156.651 113.274ZM154.719 114.654L155.021 113.872L159.842 115.816C160.062 115.905 160.239 115.939 160.373 115.919C160.506 115.896 160.611 115.842 160.688 115.755C160.763 115.665 160.823 115.563 160.867 115.448C160.9 115.362 160.923 115.29 160.935 115.231C160.946 115.171 160.954 115.124 160.96 115.088L161.72 115.21C161.719 115.271 161.71 115.353 161.693 115.456C161.679 115.56 161.643 115.685 161.587 115.831C161.502 116.051 161.371 116.249 161.195 116.423C161.02 116.595 160.809 116.711 160.562 116.773C160.316 116.832 160.046 116.802 159.752 116.683L154.719 114.654Z" fill="#295D8D"/>
<path d="M163.717 109.343C163.627 109.677 163.482 109.962 163.283 110.198C163.081 110.434 162.839 110.598 162.557 110.69C162.272 110.781 161.959 110.778 161.617 110.681C161.316 110.595 161.089 110.467 160.935 110.295C160.778 110.122 160.673 109.921 160.62 109.692C160.567 109.463 160.547 109.221 160.56 108.966C160.571 108.709 160.594 108.453 160.628 108.2C160.674 107.868 160.714 107.6 160.747 107.395C160.779 107.188 160.781 107.031 160.754 106.925C160.727 106.816 160.648 106.743 160.519 106.707L160.491 106.699C160.154 106.603 159.867 106.621 159.63 106.753C159.394 106.883 159.225 107.134 159.124 107.506C159.019 107.892 159.021 108.219 159.13 108.486C159.239 108.753 159.377 108.959 159.544 109.102L159.062 109.792C158.78 109.564 158.582 109.311 158.466 109.032C158.349 108.75 158.292 108.463 158.295 108.171C158.297 107.877 158.334 107.597 158.406 107.332C158.452 107.163 158.525 106.974 158.626 106.766C158.725 106.556 158.863 106.365 159.042 106.195C159.222 106.022 159.454 105.902 159.74 105.835C160.025 105.769 160.376 105.795 160.793 105.913L164.25 106.896L164.03 107.705L163.32 107.503L163.308 107.544C163.407 107.631 163.504 107.757 163.599 107.922C163.694 108.087 163.759 108.288 163.792 108.527C163.825 108.765 163.8 109.037 163.717 109.343ZM163.027 109.014C163.113 108.694 163.124 108.407 163.058 108.152C162.993 107.895 162.877 107.682 162.709 107.514C162.542 107.343 162.349 107.227 162.131 107.165L161.393 106.955C161.425 107.001 161.442 107.087 161.444 107.213C161.445 107.337 161.438 107.477 161.422 107.635C161.404 107.79 161.385 107.941 161.365 108.088C161.343 108.232 161.326 108.349 161.314 108.439C161.284 108.657 161.275 108.866 161.287 109.066C161.297 109.263 161.347 109.435 161.437 109.581C161.526 109.725 161.673 109.826 161.878 109.884C162.158 109.963 162.398 109.92 162.598 109.753C162.796 109.582 162.939 109.336 163.027 109.014Z" fill="#295D8D"/>
<path d="M162.014 101.142L165.253 101.664L165.126 102.492L159.741 101.624L159.864 100.824L160.705 100.96L160.716 100.889C160.462 100.719 160.272 100.492 160.146 100.208C160.017 99.923 159.984 99.5772 160.047 99.1701C160.103 98.8051 160.227 98.4977 160.419 98.2481C160.608 97.9981 160.865 97.8213 161.19 97.7178C161.513 97.6139 161.903 97.5988 162.361 97.6727L165.783 98.224L165.656 99.0523L162.29 98.51C161.867 98.4418 161.52 98.4987 161.25 98.6806C160.978 98.8622 160.812 99.1448 160.753 99.5285C160.713 99.7929 160.734 100.038 160.816 100.265C160.899 100.49 161.041 100.679 161.242 100.834C161.444 100.989 161.701 101.091 162.014 101.142Z" fill="#295D8D"/>
<path d="M166.197 86.3956L160.846 88.377L160.796 87.4977L164.898 86.074L164.895 86.0172L160.661 85.101L160.61 84.2075L164.7 82.813L164.697 82.7562L160.475 81.825L160.426 80.9457L165.964 82.2828L166.011 83.1054L161.895 84.5441L161.9 84.6292L166.15 85.573L166.197 86.3956Z" fill="#295D8D"/>
<path d="M165.207 76.8639L159.837 77.8215L159.697 76.9954L165.066 76.0377L165.207 76.8639ZM158.871 77.5611C158.898 77.7221 158.867 77.8707 158.778 78.0069C158.687 78.1408 158.566 78.2215 158.412 78.2489C158.258 78.2764 158.116 78.2427 157.987 78.1478C157.858 78.0507 157.78 77.9216 157.752 77.7606C157.725 77.5995 157.756 77.4521 157.846 77.3182C157.936 77.182 158.057 77.1001 158.211 77.0727C158.365 77.0453 158.507 77.0801 158.636 77.1773C158.765 77.2721 158.843 77.4 158.871 77.5611Z" fill="#295D8D"/>
<path d="M158.061 69.8698L158.746 69.6824L159.461 72.4172L158.776 72.6046L158.061 69.8698ZM157.307 72.1524L157.095 71.3416L162.11 69.9696C162.338 69.9072 162.501 69.8271 162.598 69.7294C162.691 69.6301 162.744 69.5225 162.755 69.4065C162.764 69.2888 162.752 69.1705 162.721 69.0514C162.698 68.962 162.674 68.89 162.65 68.8352C162.624 68.7811 162.602 68.7378 162.587 68.7053L163.27 68.3417C163.305 68.3911 163.345 68.4622 163.392 68.5551C163.44 68.6473 163.484 68.769 163.524 68.9202C163.584 69.1492 163.593 69.3871 163.552 69.6338C163.511 69.8783 163.409 70.1002 163.246 70.2994C163.082 70.4964 162.847 70.6368 162.541 70.7205L157.307 72.1524Z" fill="#295D8D"/>
<path d="M158.53 64.3731L161.586 63.1763L161.879 63.9611L155.108 66.6139L154.814 65.829L157.3 64.855L157.276 64.7884C156.968 64.7715 156.693 64.6735 156.449 64.4945C156.202 64.3141 156.003 64.0233 155.853 63.622C155.723 63.2739 155.678 62.9419 155.719 62.6258C155.758 62.3107 155.892 62.0254 156.123 61.7698C156.35 61.513 156.682 61.2991 157.118 61.1281L160.345 59.8639L160.639 60.6488L157.465 61.8922C157.062 62.0503 156.789 62.2778 156.648 62.5747C156.503 62.8704 156.5 63.2033 156.639 63.5736C156.735 63.8307 156.875 64.0402 157.06 64.2018C157.243 64.3613 157.461 64.4592 157.712 64.4955C157.962 64.5296 158.235 64.4888 158.53 64.3731Z" fill="#295D8D"/>
</g>
<defs>
<filter id="filter0_i_101_2" x="48.1378" y="24.7301" width="89.6548" height="17.4489" filterUnits="userSpaceOnUse" color-interpolation-filters="sRGB">
<feFlood flood-opacity="0" result="BackgroundImageFix"/>
<feBlend mode="normal" in="SourceGraphic" in2="BackgroundImageFix" result="shape"/>
<feColorMatrix in="SourceAlpha" type="matrix" values="0 0 0 0 0 0 0 0 0 0 0 0 0 0 0 0 0 0 127 0" result="hardAlpha"/>
<feOffset dy="4"/>
<feGaussianBlur stdDeviation="2"/>
<feComposite in2="hardAlpha" operator="arithmetic" k2="-1" k3="1"/>
<feColorMatrix type="matrix" values="0 0 0 0 0 0 0 0 0 0 0 0 0 0 0 0 0 0 0.25 0"/>
<feBlend mode="normal" in2="shape" result="effect1_innerShadow_101_2"/>
</filter>
<filter id="filter1_d_101_2" x="15.5531" y="59.8639" width="154.738" height="112.332" filterUnits="userSpaceOnUse" color-interpolation-filters="sRGB">
<feFlood flood-opacity="0" result="BackgroundImageFix"/>
<feColorMatrix in="SourceAlpha" type="matrix" values="0 0 0 0 0 0 0 0 0 0 0 0 0 0 0 0 0 0 127 0" result="hardAlpha"/>
<feOffset dy="4"/>
<feGaussianBlur stdDeviation="2"/>
<feComposite in2="hardAlpha" operator="out"/>
<feColorMatrix type="matrix" values="0 0 0 0 0 0 0 0 0 0 0 0 0 0 0 0 0 0 0.25 0"/>
<feBlend mode="normal" in2="BackgroundImageFix" result="effect1_dropShadow_101_2"/>
<feBlend mode="normal" in="SourceGraphic" in2="effect1_dropShadow_101_2" result="shape"/>
</filter>
</defs>
</svg>
