<svg width="90" height="25" viewBox="0 0 90 25" fill="none" xmlns="http://www.w3.org/2000/svg">
<path d="M32.4808 18.4916L34.7297 7.24694H36.8823L41.7175 15.3913L40.8661 15.3431L42.4725 7.24694H45.0427L42.7938 18.4916H40.6573L35.806 10.3473L36.6735 10.3955L35.051 18.4916H32.4808ZM48.7955 18.6202C48.1315 18.6202 47.5158 18.4702 46.9482 18.1704C46.3806 17.8598 45.9254 17.4154 45.5827 16.8371C45.2401 16.2588 45.0687 15.5627 45.0687 14.7488C45.0687 14.0205 45.1865 13.3512 45.4221 12.7408C45.6684 12.1304 46.0111 11.6003 46.4502 11.1505C46.8893 10.7007 47.398 10.3526 47.9763 10.1063C48.5546 9.84929 49.1757 9.72078 49.8397 9.72078C50.5572 9.72078 51.173 9.85464 51.687 10.1224C52.2011 10.3901 52.5812 10.8078 52.8275 11.3754C53.0846 11.9322 53.1756 12.6551 53.1006 13.544C53.0471 14.5614 52.8383 15.4556 52.4741 16.2266C52.11 16.987 51.6174 17.576 50.9963 17.9937C50.3858 18.4113 49.6523 18.6202 48.7955 18.6202ZM49.5666 16.5479C50.0592 16.5479 50.4929 16.4301 50.8678 16.1945C51.2533 15.9482 51.5532 15.6162 51.7673 15.1986C51.9922 14.7702 52.1047 14.2722 52.1047 13.7046C52.1047 13.1156 51.928 12.6498 51.5746 12.3071C51.2319 11.9644 50.75 11.793 50.1288 11.793C49.6469 11.793 49.2132 11.9162 48.8276 12.1625C48.4421 12.3981 48.1369 12.7301 47.912 13.1584C47.6978 13.5761 47.5907 14.0687 47.5907 14.6363C47.5907 15.2253 47.7621 15.6912 48.1048 16.0339C48.4582 16.3766 48.9455 16.5479 49.5666 16.5479ZM51.2854 18.4916L51.6228 16.7728L52.185 14.2026L52.5223 11.6324L52.8757 9.84929H55.3817L53.6629 18.4916H51.2854ZM59.0994 18.6202C58.4782 18.6202 57.9481 18.497 57.509 18.2507C57.07 17.9937 56.754 17.6296 56.5613 17.1583C56.3792 16.6764 56.3524 16.1088 56.4809 15.4556L57.9749 7.93769H60.4808L58.9869 15.4395C58.9227 15.8036 58.9601 16.0928 59.0994 16.307C59.2386 16.5211 59.4956 16.6282 59.8704 16.6282C60.0418 16.6282 60.2131 16.6015 60.3845 16.5479C60.5665 16.4944 60.7325 16.4194 60.8824 16.323L61.2519 18.1061C60.9413 18.2989 60.5986 18.4327 60.2238 18.5077C59.849 18.5827 59.4742 18.6202 59.0994 18.6202ZM55.8384 11.9697L56.2239 10.0421H62.2157L61.8302 11.9697H55.8384ZM65.8553 18.6202C65.1485 18.6202 64.5381 18.4702 64.0241 18.1704C63.51 17.8598 63.1459 17.41 62.9317 16.821C62.7175 16.232 62.6961 15.5038 62.8675 14.6363L63.8152 9.84929H66.3212L65.4055 14.4757C65.277 15.1075 65.3252 15.5948 65.5501 15.9375C65.7857 16.2802 66.198 16.4515 66.787 16.4515C67.4082 16.4515 67.9276 16.2695 68.3452 15.9054C68.7736 15.5413 69.0574 14.9844 69.1966 14.2347L70.0801 9.84929H72.5861L70.8673 18.4916H68.4898L68.9717 16.0499L69.3251 16.7889C68.9182 17.4207 68.4095 17.8866 67.7991 18.1864C67.1886 18.4756 66.5407 18.6202 65.8553 18.6202ZM72.7873 18.4916L74.5061 9.84929H76.8836L76.3856 12.3071L76.1607 11.6003C76.5462 10.9041 77.0495 10.4169 77.6707 10.1384C78.2918 9.86 79.0361 9.72078 79.9036 9.72078L79.4538 12.034C79.3467 12.0233 79.2449 12.0179 79.1486 12.0179C79.0629 12.0072 78.9719 12.0018 78.8755 12.0018C78.1365 12.0018 77.5315 12.1839 77.0603 12.548C76.5998 12.9121 76.2892 13.5011 76.1286 14.315L75.2932 18.4916H72.7873ZM83.7726 18.6202C82.873 18.6202 82.0912 18.4595 81.4272 18.1382C80.774 17.817 80.2653 17.3672 79.9012 16.7889C79.5371 16.2106 79.355 15.5305 79.355 14.7488C79.355 13.7849 79.5692 12.9282 79.9976 12.1785C80.4366 11.4182 81.0364 10.8185 81.7967 10.3794C82.5678 9.94032 83.4513 9.72078 84.4472 9.72078C85.2933 9.72078 86.0215 9.88142 86.6319 10.2027C87.2424 10.5133 87.7136 10.9523 88.0455 11.5199C88.3882 12.0768 88.5596 12.7461 88.5596 13.5279C88.5596 13.7528 88.5435 13.9777 88.5114 14.2026C88.49 14.4275 88.4579 14.6417 88.415 14.8451H81.2666L81.5236 13.3833H87.2424L86.2143 13.8331C86.2999 13.3512 86.2732 12.9496 86.1339 12.6283C85.9947 12.2964 85.7698 12.0447 85.4593 11.8733C85.1487 11.6913 84.7739 11.6003 84.3348 11.6003C83.7886 11.6003 83.3228 11.7341 82.9372 12.0018C82.5624 12.2589 82.2786 12.6176 82.0859 13.0781C81.8931 13.5386 81.7967 14.058 81.7967 14.6363C81.7967 15.3003 81.9788 15.7983 82.3429 16.1303C82.7177 16.4515 83.2799 16.6122 84.0296 16.6122C84.4687 16.6122 84.8917 16.5426 85.2986 16.4033C85.7056 16.2641 86.0536 16.066 86.3428 15.809L87.3869 17.4636C86.8836 17.8598 86.316 18.1543 85.6842 18.3471C85.063 18.5291 84.4258 18.6202 83.7726 18.6202Z" fill="#3685FB"/>
<rect x="11.3555" y="0.0571022" width="9.40283" height="21.3302" rx="4.70142" transform="rotate(30 11.3555 0.0571022)" stroke="#3685FB" stroke-width="1.94762"/>
<rect x="21.5063" y="1.22832" width="9.40283" height="21.3302" rx="4.70142" transform="rotate(30 21.5063 1.22832)" stroke="#3685FB" stroke-width="1.94762"/>
</svg>
